<svg version="1.1" xmlns="http://www.w3.org/2000/svg" style="display: block;" viewBox="0 0 2048 2048" width="967" height="967">
<path transform="translate(0,0)" fill="rgb(81,117,254)" d="M 200.47 1627.84 C 193.546 1620.84 187.865 1611.42 182.29 1603.31 C 166.366 1580.31 151.422 1556.64 137.498 1532.37 C 56.193 1389.8 10.8183 1229.58 5.29331 1065.56 C 4.23293 1040.59 4.75089 1015.25 4.9373 990.246 C 5.42286 925.12 16.0208 850.926 30.7693 787.558 C 73.9305 596.252 172.233 421.797 313.515 285.781 C 473.038 129.381 694.133 30.4387 915.526 6.70015 C 960.166 1.91375 1004.98 1.44962 1049.83 1.9833 C 1315.25 7.07171 1567.82 117.254 1752.11 308.35 C 1938.31 500.648 2041.29 758.54 2038.75 1026.2 C 2035.38 1307.05 1927.85 1564.77 1726.3 1760.76 C 1709.73 1776.88 1692.36 1793.36 1674.15 1807.56 C 1643.13 1836.78 1590.57 1872.17 1553.75 1894.39 C 1315.45 2037.08 1029.84 2078.1 761.011 2008.27 C 573.931 1961.62 394.004 1851.21 265.09 1707.98 C 245.37 1686.07 215.555 1652.95 200.47 1627.84 z M 1067.62 1727.83 C 1456 1702.44 1750.24 1366.99 1724.8 978.611 C 1699.35 590.237 1363.86 296.04 975.489 321.534 C 587.189 347.024 293.057 682.442 318.497 1070.75 C 343.937 1459.05 679.316 1753.22 1067.62 1727.83 z"/>
<path transform="translate(0,0)" fill="rgb(161,84,253)" d="M 200.47 1627.84 C 201.4 1628.13 202.435 1628.18 203.259 1628.7 C 205.858 1630.34 218.152 1647.99 221.188 1651.88 C 235.36 1669.92 250.061 1687.53 265.272 1704.7 C 305.379 1749.61 349.639 1790.64 397.462 1827.22 C 412.968 1839.26 428.901 1851.7 445.453 1862.24 C 452.995 1867.05 460.929 1870.72 468.595 1875.2 C 477.225 1880.23 480.283 1887.4 491.308 1890.72 C 499.873 1893.3 529.506 1915.71 536.9 1914.09 L 535.803 1913.48 C 531.127 1910.82 527.603 1906.87 523.048 1904.31 C 519.098 1902.1 514.775 1900.67 510.806 1898.52 C 506.221 1896.03 502.286 1892.33 497.842 1889.57 C 484.88 1881.53 472.178 1876.82 462.444 1864.39 C 462.032 1864.25 461.618 1864.12 461.208 1863.98 C 457.572 1862.71 454.921 1862.05 452.42 1858.91 L 452.091 1856.24 C 453.49 1854.6 454.196 1853.95 456.595 1853.94 C 462.733 1853.91 473.897 1863.99 482.606 1865.66 C 485.398 1866.2 487.332 1867.66 489.632 1869.23 C 491.743 1870.67 495.193 1873.84 497.619 1874.46 C 500.995 1875.33 511.864 1871.44 515.507 1870.49 C 516.837 1873.7 514.471 1875.12 519.162 1877.04 C 522.988 1878.61 526.886 1877.58 530.655 1879.43 C 531.028 1879.17 531.382 1878.88 531.774 1878.65 C 533.899 1877.39 536.041 1877.13 538.431 1876.74 C 537.394 1874.36 535.521 1872.62 533.779 1870.74 C 535.683 1869.09 536.194 1869.29 538.579 1868.86 C 538.854 1869.19 539.089 1869.55 539.402 1869.84 C 542.355 1872.61 546.783 1872.46 549.934 1874.85 C 557.412 1880.51 556.302 1888.69 568.774 1887.34 C 573.939 1886.77 578.551 1884.11 582.919 1881.48 C 588.167 1882.88 601.342 1891.39 605.92 1889.04 C 610.68 1886.6 615.118 1882.08 619.684 1879.11 C 620.001 1878.9 620.326 1878.7 620.663 1878.53 C 624.829 1876.42 660.236 1876.97 666.964 1877.14 C 670.299 1877.22 677.016 1878.5 679.757 1877.63 C 680.726 1877.32 681.84 1875.07 682.818 1874.72 C 686.003 1873.59 697.732 1876.51 701.375 1876.95 C 711.62 1878.18 722.924 1878.91 733.245 1878.45 C 747.226 1877.83 759.663 1870.5 774.087 1874.41 C 782.197 1876.62 791.917 1883.4 799.834 1884.23 C 807.772 1885.05 817.122 1879.99 824.383 1881.55 C 823.841 1877.57 819.624 1874.88 819.689 1871.46 C 828.099 1868.83 830.641 1879.42 844.027 1875.32 C 845.03 1876.13 847.13 1878.29 848.27 1878.65 C 852.812 1880.09 867.467 1879.39 872.436 1879 C 874.06 1880.34 875.373 1881.73 876.741 1883.33 C 877.045 1883.38 877.351 1883.41 877.653 1883.47 C 884.005 1884.75 887.625 1890.45 892.633 1894.08 C 903.63 1902.04 912.103 1900.05 918.874 1904.07 C 919.892 1904.67 921.389 1907.04 922.027 1908.01 C 925.399 1913.19 927.057 1929.03 930.817 1931.54 C 931.655 1932.1 934.148 1932.68 935.197 1932.96 C 947.895 1936.36 963.063 1933.44 975.037 1937.66 C 976.811 1938.29 1007.34 1957.81 1010 1959.74 C 1014.75 1963.18 1019.79 1968.47 1025.4 1970.3 C 1034.6 1973.31 1047.71 1971.13 1053.11 1980.74 C 1058.01 1989.45 1054.2 1998.73 1057.42 2007.02 C 1060.02 2013.72 1067.49 2018.91 1067.51 2026.56 C 1065.94 2029.14 1063.55 2032 1063.68 2035.12 C 1069.35 2039.66 1096.82 2034.11 1105.45 2033.58 L 1106.23 2032.3 C 1104.06 2029.78 1102.14 2028.33 1101.54 2025.01 C 1103.24 2022.2 1106.79 2020.8 1109.9 2020.05 C 1112.1 2019.53 1112.42 2019.65 1114.32 2020.64 C 1116.08 2024.69 1114.53 2028.7 1116.28 2032.58 C 1125.62 2034.78 1176.5 2026.12 1189.21 2023.78 C 1215.87 2018.87 1242.25 2014.39 1268.66 2008.01 C 1370.18 1983.12 1467.23 1942.61 1556.32 1887.94 C 1588.23 1868.28 1618 1846.62 1647.87 1824.08 C 1653.05 1820.16 1658.38 1816.29 1663.35 1812.11 C 1666.68 1809.3 1669.41 1806.02 1673 1803.51 C 1673.83 1805.1 1673.95 1805.83 1674.15 1807.56 C 1643.13 1836.78 1590.57 1872.17 1553.75 1894.39 C 1315.45 2037.08 1029.84 2078.1 761.011 2008.27 C 573.931 1961.62 394.004 1851.21 265.09 1707.98 C 245.37 1686.07 215.555 1652.95 200.47 1627.84 z"/>
<path transform="translate(0,0)" fill="rgb(81,117,254)" d="M 1164.7 1319.7 C 1164.69 1344.28 1165.91 1368.91 1165.99 1393.53 C 1166.02 1404.95 1166.84 1417.16 1164.56 1428.4 C 1161.94 1441.3 1154.85 1453.46 1143.59 1460.61 C 1132.59 1467.6 1118.44 1469.33 1105.81 1466.51 C 1093.45 1463.75 1083.02 1456.39 1076.59 1445.43 C 1071.31 1436.45 1069.57 1426.64 1069.16 1416.4 C 1068.54 1401.05 1069.14 1385.46 1069.21 1370.08 C 1069.42 1339.42 1069.43 1308.76 1069.24 1278.1 C 1067.46 1113.95 1067.34 949.776 1068.89 785.618 L 1069.09 669.119 C 1069.1 651.511 1066.5 616.692 1071.06 600.985 C 1074.6 588.804 1082.85 578.03 1094.16 572.146 C 1105.67 566.158 1119.99 564.95 1132.25 569.307 C 1146.18 574.257 1154.89 584.521 1161.28 597.271 C 1163.07 602.227 1164.96 607.295 1165.45 612.571 C 1167.73 637.219 1165.88 665.06 1165.77 690.04 L 1165.83 825.683 C 1166.46 990.357 1166.08 1155.03 1164.7 1319.7 z"/>
<path transform="translate(0,0)" fill="rgb(5,84,235)" d="M 1161.28 597.271 C 1163.07 602.227 1164.96 607.295 1165.45 612.571 C 1167.73 637.219 1165.88 665.06 1165.77 690.04 L 1165.83 825.683 C 1166.46 990.357 1166.08 1155.03 1164.7 1319.7 C 1163.53 1318.52 1163.5 1317.41 1163.46 1315.82 C 1162.72 1288.24 1164.23 1260.57 1163.94 1233 L 1162.03 830.411 L 1161.82 681.775 C 1161.75 653.57 1162.17 625.468 1161.28 597.271 z"/>
<path transform="translate(0,0)" fill="rgb(81,117,254)" d="M 784.867 664.169 C 795.179 663.281 805.328 664.049 814.775 668.663 C 824.938 673.626 835.814 684.774 839.127 695.802 C 843.708 711.051 841.135 775.494 841.135 794.754 L 841.076 998.494 L 841.146 1220.44 L 841.176 1281.82 C 841.266 1295.23 841.914 1308.75 841.264 1322.14 C 840.889 1329.85 839.153 1336.55 835.382 1343.36 C 828.848 1355.15 817.501 1362.49 804.785 1366.09 C 793.855 1368.21 781.574 1366.86 771.49 1362.09 C 760.794 1357.02 753.104 1348.17 749.288 1337.01 C 743.415 1319.84 746.23 1217.8 746.243 1190.27 L 746.283 983.741 L 746.271 804.219 C 746.262 774.462 745.105 744.305 746.27 714.593 C 746.623 705.593 747.678 696.528 751.835 688.398 C 758.831 674.716 770.871 668.474 784.867 664.169 z"/>
<path transform="translate(0,0)" fill="rgb(81,117,254)" d="M 1287.49 757.309 C 1297.67 756.355 1307.42 756.706 1316.96 760.819 C 1326.96 765.127 1338.29 776.244 1341.43 787.063 C 1346.65 805.073 1343.97 850.956 1343.99 871.173 L 1343.94 1013.28 L 1343.99 1152.02 C 1344.02 1177.82 1345.06 1204.13 1343.58 1229.88 C 1343.2 1236.5 1341.58 1242.34 1338.21 1248.1 C 1331.57 1259.44 1320.61 1267.61 1307.85 1270.73 C 1296.66 1272.24 1285.37 1271.32 1275 1266.58 C 1263.98 1261.55 1256.27 1252.81 1252.33 1241.36 C 1250.78 1236.84 1249.93 1232.11 1249.81 1227.33 C 1248.82 1200.31 1249.71 1172.95 1249.75 1145.89 L 1249.77 997.237 L 1249.71 872.329 C 1249.68 848.675 1248.8 824.64 1250.04 801.025 C 1250.41 793.81 1251.55 788.181 1254.88 781.66 C 1261.83 768.042 1273.52 761.635 1287.49 757.309 z"/>
<path transform="translate(0,0)" fill="rgb(81,117,254)" d="M 944.88 770.185 C 955.483 769.445 965.255 769.788 975.071 774.5 C 986.773 780.116 995.889 791.642 999.954 803.92 C 1005.11 819.488 1002.34 894.393 1002.3 915.703 L 1002.24 1083.23 L 1002.36 1166.96 C 1002.39 1182.97 1002.98 1199.26 1002.05 1215.23 C 1001.51 1224.37 1000.42 1232.31 995.941 1240.49 C 989.389 1252.44 978.982 1259.41 966.238 1263.26 C 952.154 1265.7 938.701 1264.75 926.481 1256.66 C 919.354 1251.94 909.602 1241.3 908.051 1232.42 C 903.451 1206.1 905.618 1177.99 905.609 1151.3 L 905.554 1020.03 L 905.556 883.596 C 905.551 859.622 903.969 834.617 906.242 810.766 C 906.924 803.606 909.906 796.922 913.787 790.917 C 921.256 779.361 931.736 773.2 944.88 770.185 z"/>
<path transform="translate(0,0)" fill="rgb(81,117,254)" d="M 592.596 939.773 C 631.089 935.27 665.976 962.741 670.628 1001.22 C 675.279 1039.69 647.943 1074.68 609.486 1079.48 C 570.819 1084.31 535.592 1056.79 530.915 1018.11 C 526.238 979.421 553.892 944.301 592.596 939.773 z"/>
<path transform="translate(0,0)" fill="rgb(81,117,254)" d="M 1455.02 940.008 C 1493.42 935.166 1528.47 962.374 1533.29 1000.77 C 1538.12 1039.17 1510.9 1074.2 1472.5 1079.02 C 1434.13 1083.83 1399.11 1056.63 1394.28 1018.25 C 1389.46 979.873 1416.65 944.847 1455.02 940.008 z"/>
<path transform="translate(0,0)" fill="rgb(161,84,253)" d="M 1095.18 2019.69 L 1096.46 2023.01 C 1098.35 2023.13 1099.26 2023.06 1100.92 2024.05 C 1101.14 2026.43 1101.1 2028.04 1100.47 2030.35 C 1100.25 2029.98 1099.58 2028.8 1099.28 2028.54 C 1097.69 2027.11 1095.73 2027.8 1093.78 2027.95 L 1092.92 2027 L 1095.18 2019.69 z"/>
</svg>